# xmcd
#
# Track frame offsets:
#	150
#	17658
#	32330
#	44878
#	63190
#	81370
#	99593
#	122955
#	140945
#	156655
#	171088
#	191700
#
# Disc length: 2762 seconds
#
# Revision: 1
# Processed by: cddbd v1.4PL0 Copyright (c) Steve Scherf et al.
# Submitted via: EasyCDDAExtractor 5.0.7
#
DISCID=af0ac80c
DTITLE=Various Artist - Da Vu Nam My
DYEAR=1900
DGENRE=
TTITLE0=Hang Nga - La Bamba
TTITLE1=Khanh Dung - Quisas
TTITLE2=Liliann - Violetta
TTITLE3=Hang Nga - Yambalaya
TTITLE4=Nhu Mai - Lambadour
TTITLE5=Elvis Phuong - Hernando's Hideaway
TTITLE6=Liliann - Jalousie
TTITLE7=Khanh Dung - Lambada
TTITLE8=Nhu Mai - Taquila
TTITLE9=Ngoc Lan - Besame Mucho
TTITLE10=Liliann - Border of Mexico
TTITLE11=Chi Tai - Guantanamera
EXTD=
EXTT0=
EXTT1=
EXTT2=
EXTT3=
EXTT4=
EXTT5=
EXTT6=
EXTT7=
EXTT8=
EXTT9=
EXTT10=
EXTT11=
PLAYORDER=
